<svg width="1024" height="1024" viewBox="0 0 1024 1024" fill="none" xmlns="http://www.w3.org/2000/svg">
<g clip-path="url(#clip0_2_2)">
<g filter="url(#filter0_d_2_2)">
<path fill-rule="evenodd" clip-rule="evenodd" d="M923.456 322.585C889.276 352.129 844.725 370 796 370C688.304 370 601 282.696 601 175C601 133.249 614.121 94.5633 636.464 62.8404C590.645 48.012 541.758 40 491 40C369.862 40 259.383 85.6346 175.815 160.65C276.174 244.665 340 370.879 340 512C340 653.121 276.174 779.335 175.815 863.35C259.383 938.365 369.862 984 491 984C525.404 984 558.948 980.319 591.26 973.33C566.495 950.321 551 917.47 551 881C551 811.412 607.412 755 677 755C741.812 755 795.194 803.934 802.217 866.872C900.78 780.364 963 653.448 963 512C963 444.633 948.887 380.563 923.456 322.585Z" fill="url(#paint0_linear_2_2)"/>
</g>
<mask id="mask0_2_2" style="mask-type:alpha" maskUnits="userSpaceOnUse" x="-1" y="-175" width="1374" height="1374">
<circle cx="686" cy="512" r="687" fill="url(#paint1_radial_2_2)"/>
</mask>
<g mask="url(#mask0_2_2)">
<path d="M271 512C271 726.839 96.8387 901 -118 901C-332.839 901 -507 726.839 -507 512C-507 297.161 -332.839 123 -118 123C96.8387 123 271 297.161 271 512Z" fill="#C74BAB"/>
</g>
<circle cx="677" cy="881" r="69" fill="url(#paint2_linear_2_2)"/>
<circle cx="796" cy="175" r="133" fill="url(#paint3_linear_2_2)"/>
</g>
<defs>
<filter id="filter0_d_2_2" x="164.361" y="37.7092" width="810.093" height="966.908" filterUnits="userSpaceOnUse" color-interpolation-filters="sRGB">
<feFlood flood-opacity="0" result="BackgroundImageFix"/>
<feColorMatrix in="SourceAlpha" type="matrix" values="0 0 0 0 0 0 0 0 0 0 0 0 0 0 0 0 0 0 127 0" result="hardAlpha"/>
<feOffset dy="9.16331"/>
<feGaussianBlur stdDeviation="5.72707"/>
<feComposite in2="hardAlpha" operator="out"/>
<feColorMatrix type="matrix" values="0 0 0 0 0 0 0 0 0 0 0 0 0 0 0 0 0 0 0.5 0"/>
<feBlend mode="normal" in2="BackgroundImageFix" result="effect1_dropShadow_2_2"/>
<feBlend mode="normal" in="SourceGraphic" in2="effect1_dropShadow_2_2" result="shape"/>
</filter>
<linearGradient id="paint0_linear_2_2" x1="626.261" y1="31.8771" x2="472.255" y2="1011.12" gradientUnits="userSpaceOnUse">
<stop stop-color="#96DCDC"/>
<stop offset="1" stop-color="#3A5393"/>
</linearGradient>
<radialGradient id="paint1_radial_2_2" cx="0" cy="0" r="1" gradientUnits="userSpaceOnUse" gradientTransform="translate(686 512) rotate(180) scale(704.175)">
<stop offset="0.565285"/>
<stop offset="0.851321" stop-opacity="0"/>
</radialGradient>
<linearGradient id="paint2_linear_2_2" x1="621.5" y1="822.5" x2="734" y2="935" gradientUnits="userSpaceOnUse">
<stop stop-color="#FFF174"/>
<stop offset="1" stop-color="#FFC774"/>
</linearGradient>
<linearGradient id="paint3_linear_2_2" x1="874.518" y1="42" x2="730.301" y2="308" gradientUnits="userSpaceOnUse">
<stop stop-color="#99F497"/>
<stop offset="1" stop-color="#63B461"/>
</linearGradient>
<clipPath id="clip0_2_2">
<rect width="1024" height="1024" fill="white"/>
</clipPath>
</defs>
</svg>
